<?xml version="1.0" encoding="UTF-8" standalone="no" ?>
<!DOCTYPE svg PUBLIC "-//W3C//DTD SVG 1.1//EN" "http://www.w3.org/Graphics/SVG/1.1/DTD/svg11.dtd">
<svg xmlns="http://www.w3.org/2000/svg" xmlns:xlink="http://www.w3.org/1999/xlink" version="1.1" width="139.1446" height="81.686" xml:space="preserve">
<desc>Created with Fabric.js 1.6.0-rc.1</desc>
<defs></defs>
<g style="stroke: none; stroke-width: 1; stroke-dasharray: none; stroke-linecap: butt; stroke-linejoin: miter; stroke-miterlimit: 10; fill: none; fill-rule: nonzero; opacity: 1;" transform="translate(10 10) scale(0.46 0.46)" >
  <ellipse cx="492.462" cy="235.828" rx="17.662" ry="17.148" style="stroke: none; stroke-width: 1; stroke-dasharray: none; stroke-linecap: butt; stroke-linejoin: miter; stroke-miterlimit: 10; fill: #35336a; fill-rule: nonzero; opacity: 1;" transform=" matrix(1 0 0 1 -290.504 -218.678) "/>
  <path d="M 493.035 248.853 h 49.338 l 2.816 -18.261 h 3.328 l -1.537 27.061 l -40.442 6.04 l -22.268 34.962 h 29.435 l 7.68 6.341 l -25.341 25.566 l 6.144 11.249 l -3.329 2.04 l -16.125 -12.035 l 22.268 -23.039 l -39.93 2.047 l -47.609 35.834 l 10.75 1.92 l -0.256 3.2 h -27.389 l 50.682 -50.937 l 18.173 -36.603 l -24.316 0.768 l -0.256 -12.031 l 47.512 -4.365" style="stroke: none; stroke-width: 1; stroke-dasharray: none; stroke-linecap: butt; stroke-linejoin: miter; stroke-miterlimit: 10; fill: #35336a; fill-rule: nonzero; opacity: 1;" transform=" matrix(1 0 0 1 -290.504 -218.678) " stroke-linecap="round" />
  <path d="M 406.71 258.813 h 66.403 v 49.803 H 406.71 z" style="stroke: none; stroke-width: 1; stroke-dasharray: none; stroke-linecap: butt; stroke-linejoin: miter; stroke-miterlimit: 10; fill: #ffaa96; fill-rule: nonzero; opacity: 1;" transform=" matrix(1 0 0 1 -290.504 -218.678) " stroke-linecap="round" />
  <path d="M 425.653 280.395 l -7.167 11.119 l 12.286 2.232 l 3.584 -5.924 l 2.304 0.75 l 2.56 -5.128 l -3.327 -1.541 l 18.94 -25.343 l -9.854 -3.443 l -15.743 27.278 z" style="stroke: none; stroke-width: 1; stroke-dasharray: none; stroke-linecap: butt; stroke-linejoin: miter; stroke-miterlimit: 10; fill: #35336a; fill-rule: nonzero; opacity: 1;" transform=" matrix(1 0 0 1 -290.504 -218.678) " stroke-linecap="round" />
  <path d="M 398.18 258.947 l -0.057 0.694 l 0.057 -0.01 z" style="stroke: none; stroke-width: 1; stroke-dasharray: none; stroke-linecap: butt; stroke-linejoin: miter; stroke-miterlimit: 10; fill: #e8c325; fill-rule: nonzero; opacity: 1;" transform=" matrix(1 0 0 1 -290.504 -218.678) " stroke-linecap="round" />
  <path d="M 395.09 259.631 v 14.123 H 290.504 z" style="stroke: none; stroke-width: 1; stroke-dasharray: none; stroke-linecap: butt; stroke-linejoin: miter; stroke-miterlimit: 10; fill: #b54c64; fill-rule: nonzero; opacity: 1;" transform=" matrix(1 0 0 1 -290.504 -218.678) " stroke-linecap="round" />
  <path d="M 395.09 280.108 v 11.907 h -80.356 z" style="stroke: none; stroke-width: 1; stroke-dasharray: none; stroke-linecap: butt; stroke-linejoin: miter; stroke-miterlimit: 10; fill: #ffaa96; fill-rule: nonzero; opacity: 1;" transform=" matrix(1 0 0 1 -290.504 -218.678) " stroke-linecap="round" />
  <path d="M 395.09 298.537 v 10.078 h -58.17 z" style="stroke: none; stroke-width: 1; stroke-dasharray: none; stroke-linecap: butt; stroke-linejoin: miter; stroke-miterlimit: 10; fill: #b54c64; fill-rule: nonzero; opacity: 1;" transform=" matrix(1 0 0 1 -290.504 -218.678) " stroke-linecap="round" />
</g>
</svg>